<?xml version="1.0" encoding="UTF-8"?>
<svg version="1.1" xmlns="http://www.w3.org/2000/svg" width="280" height="140">
<path d="M0 0 C1.39154757 0.8053973 2.77395835 1.62836022 4.125 2.5 C2.76562915 5.3605891 1.47979531 7.35927699 -0.875 9.5 C-1.473125 9.190625 -2.07125 8.88125 -2.6875 8.5625 C-5.99925851 6.95393158 -8.66921744 6.34321908 -12.3125 6.3125 C-13.45525391 6.29123047 -13.45525391 6.29123047 -14.62109375 6.26953125 C-17.23286915 6.53659321 -18.69065652 7.03920106 -20.875 8.5 C-21.5743514 10.68541552 -21.5743514 10.68541552 -21.625 13.125 C-21.68171875 13.94226563 -21.7384375 14.75953125 -21.796875 15.6015625 C-21.82265625 16.22804688 -21.8484375 16.85453125 -21.875 17.5 C-20.64523438 17.74234375 -19.41546875 17.9846875 -18.1484375 18.234375 C-16.51548232 18.5722278 -14.88267754 18.91080808 -13.25 19.25 C-12.03763672 19.48589844 -12.03763672 19.48589844 -10.80078125 19.7265625 C-4.69655805 21.0168861 -0.28292676 22.75994541 3.9375 27.5625 C6.37492727 31.53935502 6.49984399 34.92690333 6.125 39.5 C4.68392507 44.1531094 2.8247805 47.44514954 -1.4375 49.9375 C-8.90256244 53.3307102 -17.59632249 54.01328284 -25.4375 51.1875 C-28.23279257 49.81526546 -30.54115239 48.54211666 -32.875 46.5 C-32.5625 44.5625 -32.5625 44.5625 -31.875 42.5 C-30.39 42.005 -30.39 42.005 -28.875 41.5 C-28.875 40.84 -28.875 40.18 -28.875 39.5 C-26.07598843 40.12885282 -23.92136825 40.92749009 -21.25 42.125 C-16.52456025 43.92474535 -11.70582284 44.07023194 -6.875 42.5 C-5.00179444 40.71968718 -5.00179444 40.71968718 -3.875 38.5 C-3.86825074 35.37319901 -3.86825074 35.37319901 -4.875 32.5 C-8.78164977 29.89556682 -12.71201877 29.48136604 -17.25 28.73242188 C-22.14061116 27.85074795 -26.06724322 26.73192317 -29.2734375 22.7734375 C-32.0103523 17.45287513 -32.52987443 13.2920605 -30.875 7.5 C-28.83349824 3.33847718 -26.38350693 0.33981966 -22.18359375 -1.80078125 C-14.7070837 -4.0652403 -6.9445603 -3.46734092 0 0 Z " fill="#3F454D" transform="translate(45.875,38.5)"/>
<path d="M0 0 C5.29186889 2.74857846 8.16944028 6.63722709 10.0625 12.31640625 C10.0625 15.61640625 10.0625 18.91640625 10.0625 22.31640625 C2.1425 22.64640625 -5.7775 22.97640625 -13.9375 23.31640625 C-12.39707252 28.1194466 -12.39707252 28.1194466 -9.9375 30.31640625 C-5.47781036 30.85314766 -1.22786749 30.84938413 2.9375 29.12890625 C3.63875 28.86078125 4.34 28.59265625 5.0625 28.31640625 C7.375 29.50390625 7.375 29.50390625 9.0625 31.31640625 C9.0625 32.30640625 9.0625 33.29640625 9.0625 34.31640625 C2.45851028 39.30608737 -2.86958398 39.95213029 -10.9375 39.31640625 C-15.7010089 37.67083045 -18.15461723 35.49073041 -20.9375 31.31640625 C-24.01828029 24.86671515 -23.99578267 17.48339428 -22.25 10.609375 C-20.22855094 5.53048425 -17.92095644 2.86114996 -12.9375 0.31640625 C-8.58499493 -1.13442877 -4.35636245 -1.53702304 0 0 Z M-12.375 9.06640625 C-14.31776387 11.40743191 -14.31776387 11.40743191 -13.9375 15.31640625 C-8.6575 15.31640625 -3.3775 15.31640625 2.0625 15.31640625 C0.05098737 8.54150733 0.05098737 8.54150733 -2.9375 7.31640625 C-7.99191699 6.83058014 -7.99191699 6.83058014 -12.375 9.06640625 Z " fill="#3F454D" transform="translate(220.9375,51.68359375)"/>
<path d="M0 0 C4.52874079 2.31234434 6.07403796 4.54273088 8.09375 9.31640625 C8.43432617 12.75146484 8.43432617 12.75146484 8.38671875 16.46484375 C8.38247391 17.12223541 8.37822906 17.77962708 8.37385559 18.4569397 C8.35719977 20.53553016 8.3195762 22.61311399 8.28125 24.69140625 C8.26618605 26.10936089 8.25250065 27.52733089 8.24023438 28.9453125 C8.20734038 32.40266515 8.15565165 35.85943728 8.09375 39.31640625 C5.12375 39.31640625 2.15375 39.31640625 -0.90625 39.31640625 C-0.92083252 38.48391357 -0.93541504 37.6514209 -0.95043945 36.79370117 C-1.0115363 33.70150972 -1.08569556 30.60998543 -1.16870117 27.51831055 C-1.21826319 25.52349995 -1.25276133 23.52833368 -1.28710938 21.53320312 C-1.3402832 19.6527832 -1.3402832 19.6527832 -1.39453125 17.734375 C-1.42071533 16.57703857 -1.44689941 15.41970215 -1.47387695 14.22729492 C-1.67726003 11.33446598 -1.67726003 11.33446598 -3.25073242 9.4387207 C-5.84768028 7.67818844 -7.86115124 7.93576891 -10.90625 8.31640625 C-12.68629186 9.3836698 -12.68629186 9.3836698 -13.90625 11.31640625 C-14.41343056 14.31526755 -14.41343056 14.31526755 -14.41796875 17.734375 C-14.45341797 18.98798828 -14.48886719 20.24160156 -14.52539062 21.53320312 C-14.55922852 23.49870117 -14.55922852 23.49870117 -14.59375 25.50390625 C-14.62692666 26.83922638 -14.66141666 28.17451457 -14.69726562 29.50976562 C-14.77987057 32.77856129 -14.84898229 36.04708437 -14.90625 39.31640625 C-17.87625 39.31640625 -20.84625 39.31640625 -23.90625 39.31640625 C-23.90625 26.44640625 -23.90625 13.57640625 -23.90625 0.31640625 C-19.90625 0.31640625 -15.90625 0.31640625 -11.90625 0.31640625 C-7.82470111 -1.04411005 -4.14036951 -1.48476366 0 0 Z " fill="#3F454D" transform="translate(115.90625,51.68359375)"/>
<path d="M0 0 C3.79184273 2.11568435 5.78602041 4.44704083 7.75 8.375 C9.85663184 16.27486942 9.57998268 25.05547754 5.75 32.375 C2.64060929 35.94315328 -0.73924385 38.11139221 -5.51953125 38.61328125 C-11.33127736 38.7829021 -14.70980104 38.37469908 -19.25 34.375 C-24.83235666 28.34001983 -24.59772944 22.86134009 -24.53125 14.8671875 C-24.03973909 8.76426042 -22.072392 5.10849483 -17.6875 0.9375 C-12.05295824 -2.67438574 -5.98080244 -2.69415586 0 0 Z M-12.94140625 8.41015625 C-15.85795275 12.1557718 -15.89184741 14.237333 -15.8125 18.9375 C-15.81378906 20.23816406 -15.81507813 21.53882813 -15.81640625 22.87890625 C-15.17757852 26.82201535 -14.44460961 28.05586417 -11.25 30.375 C-7.79761218 30.87847322 -5.98217986 30.79056154 -2.9375 29.0625 C0.1398018 25.9851982 -0.06189976 22.6369673 0 18.5 C0.02578125 17.47132812 0.0515625 16.44265625 0.078125 15.3828125 C-0.29825739 11.93264055 -1.13248142 10.10728204 -3.25 7.375 C-7.54279578 5.94406807 -9.27135396 5.63497883 -12.94140625 8.41015625 Z " fill="#3F454D" transform="translate(155.25,52.625)"/>
<path d="M0 0 C3.3 0.33 6.6 0.66 10 1 C11.17215114 4.43571853 12.33792147 7.8733757 13.5 11.3125 C13.83386719 12.28896484 14.16773437 13.26542969 14.51171875 14.27148438 C14.82753906 15.20927734 15.14335938 16.14707031 15.46875 17.11328125 C15.90864258 18.40939331 15.90864258 18.40939331 16.35742188 19.73168945 C17 22 17 22 17 25 C17.66 25 18.32 25 19 25 C19.226875 23.824375 19.45375 22.64875 19.6875 21.4375 C21.22010836 14.45686044 23.671259 7.74623825 26 1 C29.3 0.67 32.6 0.34 36 0 C33.49575779 7.62729982 30.82602338 15.190379 28.125 22.75 C27.70347656 23.9359375 27.28195313 25.121875 26.84765625 26.34375 C25.99960193 28.71933946 25.14450982 31.09242885 24.28222656 33.46289062 C23.4166087 35.8507565 22.57001385 38.24559215 21.74121094 40.64648438 C21.3290332 41.79955078 20.91685547 42.95261719 20.4921875 44.140625 C20.13237793 45.17219727 19.77256836 46.20376953 19.40185547 47.26660156 C17.7479228 50.49151104 16.00113685 52.00765111 13 54 C10.54296875 54.390625 10.54296875 54.390625 8.1875 54.25 C7.39730469 54.21390625 6.60710938 54.1778125 5.79296875 54.140625 C5.20128906 54.09421875 4.60960937 54.0478125 4 54 C4 51.69 4 49.38 4 47 C5.3921875 46.7525 5.3921875 46.7525 6.8125 46.5 C10.19907431 44.90631797 10.53954941 44.66913093 11.85864258 41.42919922 C13.52992832 36.50168681 12.39562604 33.29376942 10.44921875 28.6328125 C10.15642532 27.87201385 9.8636319 27.11121521 9.56196594 26.32736206 C8.62825557 23.91613828 7.65928805 21.5210973 6.6875 19.125 C5.73467142 16.70485865 4.78915873 14.28196859 3.84516907 11.85836792 C3.25665463 10.35543452 2.66146198 8.85509578 2.05900574 7.35769653 C0 2.21116155 0 2.21116155 0 0 Z " fill="#3F454D" transform="translate(53,51)"/>
<path d="M0 0 C0.845625 0.495 1.69125 0.99 2.5625 1.5 C1.27071753 4.38166859 0.08902733 6.56394198 -2.4375 8.5 C-5.06714869 8.46539936 -7.47645416 7.9930439 -10.0625 7.53125 C-12.4354887 7.27343011 -12.4354887 7.27343011 -14.05395508 8.59692383 C-16.05566072 11.3502846 -15.87277508 13.53915837 -15.94921875 16.91796875 C-15.98466797 18.17158203 -16.02011719 19.42519531 -16.05664062 20.71679688 C-16.09047852 22.68229492 -16.09047852 22.68229492 -16.125 24.6875 C-16.15817666 26.02282013 -16.19266666 27.35810832 -16.22851562 28.69335938 C-16.31112057 31.96215504 -16.38023229 35.23067812 -16.4375 38.5 C-19.4075 38.5 -22.3775 38.5 -25.4375 38.5 C-25.4375 25.63 -25.4375 12.76 -25.4375 -0.5 C-21.4375 -0.5 -17.4375 -0.5 -13.4375 -0.5 C-8.53107516 -2.13547495 -4.75572976 -2.07522753 0 0 Z " fill="#3F454D" transform="translate(196.4375,52.5)"/>
<path d="M0 0 C1.43655854 -0.08131463 2.8744483 -0.13933559 4.3125 -0.1875 C5.51326172 -0.23970703 5.51326172 -0.23970703 6.73828125 -0.29296875 C9.58075445 0.07522726 10.12471599 0.89038088 12 3 C13.89671458 5.54306897 15.5949693 8.20862366 17.3125 10.875 C17.79267578 11.58269531 18.27285156 12.29039063 18.76757812 13.01953125 C22.12814574 18.25791967 22.12814574 18.25791967 21.5703125 21.48828125 C21.05210937 22.31714844 20.53390625 23.14601563 20 24 C19.33336301 25.32878949 18.66813367 26.65828564 18.00390625 27.98828125 C11.71535939 39.42389817 11.71535939 39.42389817 6.89453125 41.04296875 C4.0987527 41.00318406 1.69262118 40.73714344 -1 40 C0.28260709 37.31157881 1.690019 34.89304773 3.41796875 32.46875 C3.86720703 31.82292969 4.31644531 31.17710938 4.77929688 30.51171875 C5.72196885 29.1650445 6.67258615 27.82389887 7.63085938 26.48828125 C8.07623047 25.84246094 8.52160156 25.19664063 8.98046875 24.53125 C9.39192139 23.94923828 9.80337402 23.36722656 10.22729492 22.76757812 C11.25789995 20.41004878 10.91166558 19.37611885 10 17 C8.98391962 15.16701274 8.98391962 15.16701274 7.71484375 13.3984375 C7.26689453 12.74359375 6.81894531 12.08875 6.35742188 11.4140625 C5.65456055 10.40472656 5.65456055 10.40472656 4.9375 9.375 C0 2.26176671 0 2.26176671 0 0 Z " fill="#5BB5DE" transform="translate(234,51)"/>
<path d="M0 0 C0.66 0 1.32 0 2 0 C3.6404154 2.24150624 5.14662087 4.4678831 6.625 6.8125 C7.25535156 7.77639648 7.25535156 7.77639648 7.8984375 8.75976562 C11 13.61854454 11 13.61854454 11 17 C7.84063684 17.56868537 5.13839387 17.7528076 2 17 C-0.82987692 14.41835789 -2.81024559 11.65051474 -4 8 C-3.11470376 4.8328172 -1.83364607 2.7504691 0 0 Z " fill="#3F454D" transform="translate(257,74)"/>
<path d="M0 0 C0.33 0.99 0.66 1.98 1 3 C-0.52195372 5.52873936 -2.06271854 7.82683409 -3.8125 10.1875 C-4.27720703 10.84169922 -4.74191406 11.49589844 -5.22070312 12.16992188 C-6.42259425 13.8235999 -7.70592265 15.41742075 -9 17 C-9.66 17 -10.32 17 -11 17 C-12.97394681 14.44118006 -14.02145553 12.83676574 -13.9375 9.5625 C-12.66052834 6.07211079 -11.52442384 3.77686623 -9 1 C-5.99594828 0.20237247 -3.10037521 0.01324947 0 0 Z " fill="#3E444C" transform="translate(267,51)"/>
</svg>
